<svg width="192" height="292" viewBox="0 0 192 292" fill="none" xmlns="http://www.w3.org/2000/svg">
<g clip-path="url(#clip0_19256_568538)">
<path opacity="0.7" d="M90 232C134.183 232 170 196.183 170 152C170 107.817 134.183 72 90 72C45.8172 72 10 107.817 10 152C10 196.183 45.8172 232 90 232Z" fill="#FFD700
"/>
<path opacity="0.7" d="M40 292C62.0914 292 80 274.091 80 252C80 229.909 62.0914 212 40 212C17.9086 212 0 229.909 0 252C0 274.091 17.9086 292 40 292Z" fill="#FF6347
"/>
<path d="M140 2C156.667 18.6667 173.333 18.6667 190 2" stroke="white" stroke-width="4"/>
<path d="M140 22C156.667 38.6667 173.333 38.6667 190 22" stroke="white" stroke-width="4"/>
<path d="M140 42C156.667 58.6667 173.333 58.6667 190 42" stroke="white" stroke-width="4"/>
</g>
<defs>
<clipPath id="clip0_19256_568538">
<rect width="192" height="292" fill="white"/>
</clipPath>
</defs>
</svg>